<svg xmlns="http://www.w3.org/2000/svg" width="2048" height="2048" viewBox="0 0 1024 1024"><rect x="0" y="0" width="1024" height="1024" rx="0" fill="#89969b"/><rect x="72" y="72" width="880" height="56" rx="9" fill="#45515a"/><rect x="74" y="74" width="876" height="52" rx="8" fill="#f3f5f2"/><rect x="72" y="172" width="880" height="56" rx="9" fill="#45515a"/><rect x="74" y="174" width="876" height="52" rx="8" fill="#f3f5f2"/><rect x="72" y="272" width="880" height="56" rx="9" fill="#45515a"/><rect x="74" y="274" width="876" height="52" rx="8" fill="#f3f5f2"/><rect x="72" y="372" width="880" height="56" rx="9" fill="#45515a"/><rect x="74" y="374" width="876" height="52" rx="8" fill="#f3f5f2"/><rect x="72" y="472" width="880" height="56" rx="9" fill="#45515a"/><rect x="74" y="474" width="876" height="52" rx="8" fill="#f3f5f2"/><rect x="72" y="572" width="880" height="56" rx="9" fill="#45515a"/><rect x="74" y="574" width="876" height="52" rx="8" fill="#f3f5f2"/><rect x="72" y="672" width="880" height="56" rx="9" fill="#45515a"/><rect x="74" y="674" width="876" height="52" rx="8" fill="#f3f5f2"/><rect x="72" y="772" width="880" height="56" rx="9" fill="#45515a"/><rect x="74" y="774" width="876" height="52" rx="8" fill="#f3f5f2"/><rect x="72" y="872" width="880" height="56" rx="9" fill="#45515a"/><rect x="74" y="874" width="876" height="52" rx="8" fill="#f3f5f2"/><rect x="12" y="12" width="1000" height="1000" fill="none" stroke="#aeb7ba" stroke-width="10"/></svg>