<svg xmlns="http://www.w3.org/2000/svg" width="2048" height="2048" viewBox="0 0 1024 1024"><rect x="0" y="0" width="1024" height="1024" rx="0" fill="#454f57"/><circle cx="110" cy="110" r="29" fill="#f4f6f3" stroke="#505d65" stroke-width="3"/><circle cx="235" cy="110" r="29" fill="#f4f6f3" stroke="#505d65" stroke-width="3"/><circle cx="360" cy="110" r="29" fill="#f4f6f3" stroke="#505d65" stroke-width="3"/><circle cx="485" cy="110" r="29" fill="#f4f6f3" stroke="#505d65" stroke-width="3"/><circle cx="610" cy="110" r="29" fill="#f4f6f3" stroke="#505d65" stroke-width="3"/><circle cx="735" cy="110" r="29" fill="#f4f6f3" stroke="#505d65" stroke-width="3"/><circle cx="860" cy="110" r="29" fill="#f4f6f3" stroke="#505d65" stroke-width="3"/><circle cx="110" cy="235" r="29" fill="#f4f6f3" stroke="#505d65" stroke-width="3"/><circle cx="235" cy="235" r="29" fill="#f4f6f3" stroke="#505d65" stroke-width="3"/><circle cx="360" cy="235" r="29" fill="#f4f6f3" stroke="#505d65" stroke-width="3"/><circle cx="485" cy="235" r="29" fill="#f4f6f3" stroke="#505d65" stroke-width="3"/><circle cx="610" cy="235" r="29" fill="#f4f6f3" stroke="#505d65" stroke-width="3"/><circle cx="735" cy="235" r="29" fill="#f4f6f3" stroke="#505d65" stroke-width="3"/><circle cx="860" cy="235" r="29" fill="#f4f6f3" stroke="#505d65" stroke-width="3"/><circle cx="110" cy="360" r="29" fill="#f4f6f3" stroke="#505d65" stroke-width="3"/><circle cx="235" cy="360" r="29" fill="#f4f6f3" stroke="#505d65" stroke-width="3"/><circle cx="360" cy="360" r="29" fill="#f4f6f3" stroke="#505d65" stroke-width="3"/><circle cx="485" cy="360" r="29" fill="#f4f6f3" stroke="#505d65" stroke-width="3"/><circle cx="610" cy="360" r="29" fill="#f4f6f3" stroke="#505d65" stroke-width="3"/><circle cx="735" cy="360" r="29" fill="#f4f6f3" stroke="#505d65" stroke-width="3"/><circle cx="860" cy="360" r="29" fill="#f4f6f3" stroke="#505d65" stroke-width="3"/><circle cx="110" cy="485" r="29" fill="#f4f6f3" stroke="#505d65" stroke-width="3"/><circle cx="235" cy="485" r="29" fill="#f4f6f3" stroke="#505d65" stroke-width="3"/><circle cx="360" cy="485" r="29" fill="#f4f6f3" stroke="#505d65" stroke-width="3"/><circle cx="485" cy="485" r="29" fill="#f4f6f3" stroke="#505d65" stroke-width="3"/><circle cx="610" cy="485" r="29" fill="#f4f6f3" stroke="#505d65" stroke-width="3"/><circle cx="735" cy="485" r="29" fill="#f4f6f3" stroke="#505d65" stroke-width="3"/><circle cx="860" cy="485" r="29" fill="#f4f6f3" stroke="#505d65" stroke-width="3"/><circle cx="110" cy="610" r="29" fill="#f4f6f3" stroke="#505d65" stroke-width="3"/><circle cx="235" cy="610" r="29" fill="#f4f6f3" stroke="#505d65" stroke-width="3"/><circle cx="360" cy="610" r="29" fill="#f4f6f3" stroke="#505d65" stroke-width="3"/><circle cx="485" cy="610" r="29" fill="#f4f6f3" stroke="#505d65" stroke-width="3"/><circle cx="610" cy="610" r="29" fill="#f4f6f3" stroke="#505d65" stroke-width="3"/><circle cx="735" cy="610" r="29" fill="#f4f6f3" stroke="#505d65" stroke-width="3"/><circle cx="860" cy="610" r="29" fill="#f4f6f3" stroke="#505d65" stroke-width="3"/><circle cx="110" cy="735" r="29" fill="#f4f6f3" stroke="#505d65" stroke-width="3"/><circle cx="235" cy="735" r="29" fill="#f4f6f3" stroke="#505d65" stroke-width="3"/><circle cx="360" cy="735" r="29" fill="#f4f6f3" stroke="#505d65" stroke-width="3"/><circle cx="485" cy="735" r="29" fill="#f4f6f3" stroke="#505d65" stroke-width="3"/><circle cx="610" cy="735" r="29" fill="#f4f6f3" stroke="#505d65" stroke-width="3"/><circle cx="735" cy="735" r="29" fill="#f4f6f3" stroke="#505d65" stroke-width="3"/><circle cx="860" cy="735" r="29" fill="#f4f6f3" stroke="#505d65" stroke-width="3"/><circle cx="110" cy="860" r="29" fill="#f4f6f3" stroke="#505d65" stroke-width="3"/><circle cx="235" cy="860" r="29" fill="#f4f6f3" stroke="#505d65" stroke-width="3"/><circle cx="360" cy="860" r="29" fill="#f4f6f3" stroke="#505d65" stroke-width="3"/><circle cx="485" cy="860" r="29" fill="#f4f6f3" stroke="#505d65" stroke-width="3"/><circle cx="610" cy="860" r="29" fill="#f4f6f3" stroke="#505d65" stroke-width="3"/><circle cx="735" cy="860" r="29" fill="#f4f6f3" stroke="#505d65" stroke-width="3"/><circle cx="860" cy="860" r="29" fill="#f4f6f3" stroke="#505d65" stroke-width="3"/><rect x="12" y="12" width="1000" height="1000" fill="none" stroke="#aeb7ba" stroke-width="10"/></svg>