<svg xmlns="http://www.w3.org/2000/svg" width="2048" height="2048" viewBox="0 0 1024 1024"><rect x="0" y="0" width="1024" height="1024" rx="0" fill="#89969b"/><rect x="86" y="86" width="114" height="114" rx="5" fill="#45515a"/><rect x="88" y="88" width="110" height="110" rx="4" fill="#f3f5f2"/><rect x="231" y="86" width="114" height="114" rx="5" fill="#45515a"/><rect x="233" y="88" width="110" height="110" rx="4" fill="#f3f5f2"/><rect x="376" y="86" width="114" height="114" rx="5" fill="#45515a"/><rect x="378" y="88" width="110" height="110" rx="4" fill="#f3f5f2"/><rect x="521" y="86" width="114" height="114" rx="5" fill="#45515a"/><rect x="523" y="88" width="110" height="110" rx="4" fill="#f3f5f2"/><rect x="666" y="86" width="114" height="114" rx="5" fill="#45515a"/><rect x="668" y="88" width="110" height="110" rx="4" fill="#f3f5f2"/><rect x="811" y="86" width="114" height="114" rx="5" fill="#45515a"/><rect x="813" y="88" width="110" height="110" rx="4" fill="#f3f5f2"/><rect x="86" y="231" width="114" height="114" rx="5" fill="#45515a"/><rect x="88" y="233" width="110" height="110" rx="4" fill="#f3f5f2"/><rect x="231" y="231" width="114" height="114" rx="5" fill="#45515a"/><rect x="233" y="233" width="110" height="110" rx="4" fill="#f3f5f2"/><rect x="376" y="231" width="114" height="114" rx="5" fill="#45515a"/><rect x="378" y="233" width="110" height="110" rx="4" fill="#f3f5f2"/><rect x="521" y="231" width="114" height="114" rx="5" fill="#45515a"/><rect x="523" y="233" width="110" height="110" rx="4" fill="#f3f5f2"/><rect x="666" y="231" width="114" height="114" rx="5" fill="#45515a"/><rect x="668" y="233" width="110" height="110" rx="4" fill="#f3f5f2"/><rect x="811" y="231" width="114" height="114" rx="5" fill="#45515a"/><rect x="813" y="233" width="110" height="110" rx="4" fill="#f3f5f2"/><rect x="86" y="376" width="114" height="114" rx="5" fill="#45515a"/><rect x="88" y="378" width="110" height="110" rx="4" fill="#f3f5f2"/><rect x="231" y="376" width="114" height="114" rx="5" fill="#45515a"/><rect x="233" y="378" width="110" height="110" rx="4" fill="#f3f5f2"/><rect x="376" y="376" width="114" height="114" rx="5" fill="#45515a"/><rect x="378" y="378" width="110" height="110" rx="4" fill="#f3f5f2"/><rect x="521" y="376" width="114" height="114" rx="5" fill="#45515a"/><rect x="523" y="378" width="110" height="110" rx="4" fill="#f3f5f2"/><rect x="666" y="376" width="114" height="114" rx="5" fill="#45515a"/><rect x="668" y="378" width="110" height="110" rx="4" fill="#f3f5f2"/><rect x="811" y="376" width="114" height="114" rx="5" fill="#45515a"/><rect x="813" y="378" width="110" height="110" rx="4" fill="#f3f5f2"/><rect x="86" y="521" width="114" height="114" rx="5" fill="#45515a"/><rect x="88" y="523" width="110" height="110" rx="4" fill="#f3f5f2"/><rect x="231" y="521" width="114" height="114" rx="5" fill="#45515a"/><rect x="233" y="523" width="110" height="110" rx="4" fill="#f3f5f2"/><rect x="376" y="521" width="114" height="114" rx="5" fill="#45515a"/><rect x="378" y="523" width="110" height="110" rx="4" fill="#f3f5f2"/><rect x="521" y="521" width="114" height="114" rx="5" fill="#45515a"/><rect x="523" y="523" width="110" height="110" rx="4" fill="#f3f5f2"/><rect x="666" y="521" width="114" height="114" rx="5" fill="#45515a"/><rect x="668" y="523" width="110" height="110" rx="4" fill="#f3f5f2"/><rect x="811" y="521" width="114" height="114" rx="5" fill="#45515a"/><rect x="813" y="523" width="110" height="110" rx="4" fill="#f3f5f2"/><rect x="86" y="666" width="114" height="114" rx="5" fill="#45515a"/><rect x="88" y="668" width="110" height="110" rx="4" fill="#f3f5f2"/><rect x="231" y="666" width="114" height="114" rx="5" fill="#45515a"/><rect x="233" y="668" width="110" height="110" rx="4" fill="#f3f5f2"/><rect x="376" y="666" width="114" height="114" rx="5" fill="#45515a"/><rect x="378" y="668" width="110" height="110" rx="4" fill="#f3f5f2"/><rect x="521" y="666" width="114" height="114" rx="5" fill="#45515a"/><rect x="523" y="668" width="110" height="110" rx="4" fill="#f3f5f2"/><rect x="666" y="666" width="114" height="114" rx="5" fill="#45515a"/><rect x="668" y="668" width="110" height="110" rx="4" fill="#f3f5f2"/><rect x="811" y="666" width="114" height="114" rx="5" fill="#45515a"/><rect x="813" y="668" width="110" height="110" rx="4" fill="#f3f5f2"/><rect x="86" y="811" width="114" height="114" rx="5" fill="#45515a"/><rect x="88" y="813" width="110" height="110" rx="4" fill="#f3f5f2"/><rect x="231" y="811" width="114" height="114" rx="5" fill="#45515a"/><rect x="233" y="813" width="110" height="110" rx="4" fill="#f3f5f2"/><rect x="376" y="811" width="114" height="114" rx="5" fill="#45515a"/><rect x="378" y="813" width="110" height="110" rx="4" fill="#f3f5f2"/><rect x="521" y="811" width="114" height="114" rx="5" fill="#45515a"/><rect x="523" y="813" width="110" height="110" rx="4" fill="#f3f5f2"/><rect x="666" y="811" width="114" height="114" rx="5" fill="#45515a"/><rect x="668" y="813" width="110" height="110" rx="4" fill="#f3f5f2"/><rect x="811" y="811" width="114" height="114" rx="5" fill="#45515a"/><rect x="813" y="813" width="110" height="110" rx="4" fill="#f3f5f2"/><rect x="12" y="12" width="1000" height="1000" fill="none" stroke="#aeb7ba" stroke-width="10"/></svg>